<?xml version="1.0" ?><!DOCTYPE svg  PUBLIC '-//W3C//DTD SVG 1.1//EN'  'http://www.w3.org/Graphics/SVG/1.1/DTD/svg11.dtd'><svg enable-background="new 0 0 64 64" height="64px" id="Layer_1" version="1.1" viewBox="0 0 64 64" width="64px" xml:space="preserve" xmlns="http://www.w3.org/2000/svg" xmlns:xlink="http://www.w3.org/1999/xlink"><path d="M32,7.173c-13.689,0-24.826,11.137-24.826,24.826c0,13.69,11.137,24.828,24.826,24.828s24.826-11.138,24.826-24.828  C56.826,18.31,45.689,7.173,32,7.173z M25.484,31.956c0,0.25-0.025,0.494-0.061,0.734l10.447,5.115  c0.894-0.94,2.154-1.529,3.554-1.529c2.711,0,4.908,2.197,4.908,4.908s-2.197,4.908-4.908,4.908s-4.908-2.197-4.908-4.908  c0-0.25,0.025-0.494,0.061-0.734L24.13,35.335c-0.894,0.94-2.154,1.529-3.554,1.529c-2.711,0-4.908-2.197-4.908-4.908  s2.197-4.908,4.908-4.908c1.406,0,2.671,0.595,3.566,1.542l10.432-5.059c-0.034-0.234-0.058-0.472-0.058-0.716  c0-2.711,2.197-4.908,4.908-4.908s4.908,2.197,4.908,4.908s-2.197,4.908-4.908,4.908c-1.406,0-2.671-0.595-3.566-1.542L25.426,31.24  C25.461,31.475,25.484,31.712,25.484,31.956z"/></svg>